<svg width="1304" height="914" viewBox="0 0 1304 914" fill="none" xmlns="http://www.w3.org/2000/svg">
<path d="M1304 0.599976H0V913.4H1304V0.599976Z" fill="white"/>
<path d="M1053.38 431.666H268.369V215.499C268.369 186.341 292.007 162.704 321.165 162.704H1000.58C1029.74 162.704 1053.38 186.341 1053.38 215.499V431.666Z" fill="#FDE5E3"/>
<path d="M300.518 162.704V297.185H267.716" stroke="white" stroke-width="5" stroke-miterlimit="10"/>
<path d="M300.518 297.185H267.716V431.666H300.518V297.185Z" stroke="white" stroke-width="5" stroke-miterlimit="10"/>
<path d="M333.319 162.704H300.518V297.185H333.319V162.704Z" stroke="white" stroke-width="5" stroke-miterlimit="10"/>
<path d="M333.319 297.185H300.518V431.666H333.319V297.185Z" stroke="white" stroke-width="5" stroke-miterlimit="10"/>
<path d="M366.12 162.704H333.319V297.185H366.12V162.704Z" stroke="white" stroke-width="5" stroke-miterlimit="10"/>
<path d="M366.12 297.185H333.319V431.666H366.12V297.185Z" stroke="white" stroke-width="5" stroke-miterlimit="10"/>
<path d="M398.922 162.704H366.12V297.185H398.922V162.704Z" stroke="white" stroke-width="5" stroke-miterlimit="10"/>
<path d="M398.922 297.185H366.12V431.666H398.922V297.185Z" stroke="white" stroke-width="5" stroke-miterlimit="10"/>
<path d="M431.723 162.704H398.922V297.185H431.723V162.704Z" stroke="white" stroke-width="5" stroke-miterlimit="10"/>
<path d="M431.723 297.185H398.922V431.666H431.723V297.185Z" stroke="white" stroke-width="5" stroke-miterlimit="10"/>
<path d="M464.524 162.704H431.723V297.185H464.524V162.704Z" stroke="white" stroke-width="5" stroke-miterlimit="10"/>
<path d="M464.524 297.185H431.723V431.666H464.524V297.185Z" stroke="white" stroke-width="5" stroke-miterlimit="10"/>
<path d="M497.326 162.704H464.524V297.185H497.326V162.704Z" stroke="white" stroke-width="5" stroke-miterlimit="10"/>
<path d="M497.326 297.185H464.524V431.666H497.326V297.185Z" stroke="white" stroke-width="5" stroke-miterlimit="10"/>
<path d="M530.127 162.704H497.326V297.185H530.127V162.704Z" stroke="white" stroke-width="5" stroke-miterlimit="10"/>
<path d="M530.127 297.185H497.326V431.666H530.127V297.185Z" stroke="white" stroke-width="5" stroke-miterlimit="10"/>
<path d="M562.929 162.704H530.127V297.185H562.929V162.704Z" stroke="white" stroke-width="5" stroke-miterlimit="10"/>
<path d="M562.929 297.185H530.127V431.666H562.929V297.185Z" stroke="white" stroke-width="5" stroke-miterlimit="10"/>
<path d="M595.73 162.704H562.929V297.185H595.73V162.704Z" stroke="white" stroke-width="5" stroke-miterlimit="10"/>
<path d="M595.73 297.185H562.929V431.666H595.73V297.185Z" stroke="white" stroke-width="5" stroke-miterlimit="10"/>
<path d="M628.531 162.704H595.73V297.185H628.531V162.704Z" stroke="white" stroke-width="5" stroke-miterlimit="10"/>
<path d="M628.531 297.185H595.73V431.666H628.531V297.185Z" stroke="white" stroke-width="5" stroke-miterlimit="10"/>
<path d="M661.333 162.704H628.531V297.185H661.333V162.704Z" stroke="white" stroke-width="5" stroke-miterlimit="10"/>
<path d="M661.333 297.185H628.531V431.666H661.333V297.185Z" stroke="white" stroke-width="5" stroke-miterlimit="10"/>
<path d="M694.134 162.704H661.333V297.185H694.134V162.704Z" stroke="white" stroke-width="5" stroke-miterlimit="10"/>
<path d="M694.134 297.185H661.333V431.666H694.134V297.185Z" stroke="white" stroke-width="5" stroke-miterlimit="10"/>
<path d="M726.935 162.704H694.134V297.185H726.935V162.704Z" stroke="white" stroke-width="5" stroke-miterlimit="10"/>
<path d="M726.935 297.185H694.134V431.666H726.935V297.185Z" stroke="white" stroke-width="5" stroke-miterlimit="10"/>
<path d="M759.737 162.704H726.936V297.185H759.737V162.704Z" stroke="white" stroke-width="5" stroke-miterlimit="10"/>
<path d="M759.737 297.185H726.936V431.666H759.737V297.185Z" stroke="white" stroke-width="5" stroke-miterlimit="10"/>
<path d="M792.538 162.704H759.737V297.185H792.538V162.704Z" stroke="white" stroke-width="5" stroke-miterlimit="10"/>
<path d="M792.538 297.185H759.737V431.666H792.538V297.185Z" stroke="white" stroke-width="5" stroke-miterlimit="10"/>
<path d="M825.34 162.704H792.538V297.185H825.34V162.704Z" stroke="white" stroke-width="5" stroke-miterlimit="10"/>
<path d="M825.34 297.185H792.538V431.666H825.34V297.185Z" stroke="white" stroke-width="5" stroke-miterlimit="10"/>
<path d="M858.141 162.704H825.34V297.185H858.141V162.704Z" stroke="white" stroke-width="5" stroke-miterlimit="10"/>
<path d="M858.141 297.185H825.34V431.666H858.141V297.185Z" stroke="white" stroke-width="5" stroke-miterlimit="10"/>
<path d="M890.942 162.704H858.141V297.185H890.942V162.704Z" stroke="white" stroke-width="5" stroke-miterlimit="10"/>
<path d="M890.942 297.185H858.141V431.666H890.942V297.185Z" stroke="white" stroke-width="5" stroke-miterlimit="10"/>
<path d="M923.744 162.704H890.942V297.185H923.744V162.704Z" stroke="white" stroke-width="5" stroke-miterlimit="10"/>
<path d="M923.744 297.185H890.942V431.666H923.744V297.185Z" stroke="white" stroke-width="5" stroke-miterlimit="10"/>
<path d="M956.545 162.704H923.744V297.185H956.545V162.704Z" stroke="white" stroke-width="5" stroke-miterlimit="10"/>
<path d="M956.545 297.185H923.744V431.666H956.545V297.185Z" stroke="white" stroke-width="5" stroke-miterlimit="10"/>
<path d="M989.347 162.704H956.545V297.185H989.347V162.704Z" stroke="white" stroke-width="5" stroke-miterlimit="10"/>
<path d="M989.347 297.185H956.545V431.666H989.347V297.185Z" stroke="white" stroke-width="5" stroke-miterlimit="10"/>
<path d="M1022.15 162.704H989.347V297.185H1022.15V162.704Z" stroke="white" stroke-width="5" stroke-miterlimit="10"/>
<path d="M1022.15 297.185H989.347V431.666H1022.15V297.185Z" stroke="white" stroke-width="5" stroke-miterlimit="10"/>
<path d="M1054.95 297.185H1022.15V162.704" stroke="white" stroke-width="5" stroke-miterlimit="10"/>
<path d="M1054.95 297.185H1022.15V431.666H1054.95V297.185Z" stroke="white" stroke-width="5" stroke-miterlimit="10"/>
<path d="M576.569 295.076H652.064C666.373 295.076 679.45 303.174 685.828 315.983L723.668 391.988C732.751 410.234 719.481 431.666 699.099 431.666H529.981C508.014 431.666 493.374 408.986 502.419 388.967L531.779 323.988C539.732 306.388 557.255 295.076 576.569 295.076Z" fill="#FF6E00"/>
<path d="M585.225 294.789L542.557 431.666H676.369L649.99 294.789H641.418L643.942 322.514C645.111 335.23 635.102 346.203 622.331 346.203H611.35C597.582 346.203 587.295 333.547 590.106 320.069L595.321 294.789H585.225V294.789Z" fill="white"/>
<path d="M653.339 417.92L661.943 332.233H670.562L676.295 417.92H653.339Z" fill="#573240"/>
<path d="M601.383 417.92L615.728 332.233H661.943L653.339 417.92H601.383Z" fill="#F1B104"/>
<path d="M665.266 332.232C659.792 332.232 655.211 336.377 654.663 341.823L654.224 346.203H605.138L605.578 341.823C606.126 336.377 610.707 332.232 616.181 332.232H665.266Z" fill="#F1B104" stroke="#573240" stroke-width="5" stroke-miterlimit="10" stroke-linecap="round"/>
<path d="M621.873 371.412H620.839C617.812 371.412 615.358 373.865 615.358 376.893C615.358 377.535 615.879 378.056 616.521 378.056H640.934" stroke="white" stroke-width="4" stroke-miterlimit="10" stroke-linecap="round"/>
<path d="M629.522 368.236H627.989C623.973 368.236 620.718 371.491 620.718 375.507V375.561C620.718 376.939 621.834 378.056 623.212 378.056" stroke="white" stroke-width="4" stroke-miterlimit="10" stroke-linecap="round"/>
<path d="M642.481 370.237C641.613 367.634 639.157 365.758 636.263 365.758H634.744C631.124 365.758 628.19 368.692 628.19 372.312V375.404C628.19 376.869 629.377 378.056 630.841 378.056" stroke="white" stroke-width="4" stroke-miterlimit="10" stroke-linecap="round"/>
<path d="M636.943 376.469V374.938C636.943 372.342 639.047 370.237 641.644 370.237H642.088C644.386 370.237 646.54 371.354 647.863 373.233L649.206 375.14C650.069 376.366 649.192 378.056 647.693 378.056H638.53C637.653 378.056 636.943 377.345 636.943 376.469Z" stroke="white" stroke-width="4" stroke-miterlimit="10" stroke-linecap="round"/>
<path d="M619.97 383.476H644.084" stroke="white" stroke-width="4" stroke-miterlimit="10" stroke-linecap="round"/>
<path d="M525.72 431.666H662.739C665.209 431.666 667.567 430.633 669.241 428.817L674.394 423.226C675.826 421.673 676.532 419.586 676.337 417.482L675.496 408.427H673.466C671.616 408.427 669.983 409.638 669.448 411.41L668.289 415.242C667.808 416.832 666.343 417.92 664.683 417.92H648.73L651.009 417.222C654.063 416.288 656.188 413.52 656.301 410.329L532.048 379.645C515.407 375.535 499.325 388.13 499.325 405.27C499.325 419.848 511.143 431.666 525.72 431.666Z" fill="#F6ACC1"/>
<path d="M724.858 394.039L686.62 317.233C683.415 310.795 676.842 306.725 669.65 306.725H655.944C648.382 306.725 641.621 311.433 638.997 318.524L634.16 331.598C632.928 334.925 634.781 338.599 638.188 339.588L649.956 343.002C653.24 343.955 656.755 342.598 658.547 339.686L661.717 334.534C662.597 333.104 664.156 332.233 665.835 332.233H670.562L675.59 407.376C676.505 421.045 687.86 431.665 701.56 431.665C720.888 431.666 733.473 411.342 724.858 394.039Z" fill="#F6ACC1"/>
<path d="M645.599 320.534L640.762 333.607C639.53 336.935 641.383 340.608 644.79 341.597" stroke="#573240" stroke-width="5" stroke-miterlimit="10" stroke-linecap="round"/>
<path d="M651.339 321.969L646.502 335.042C645.271 338.37 647.123 342.043 650.531 343.032" stroke="#573240" stroke-width="5" stroke-miterlimit="10" stroke-linecap="round"/>
<path d="M657.941 323.404L653.104 336.478C652.286 338.69 652.83 341.056 654.289 342.683" stroke="#573240" stroke-width="5" stroke-miterlimit="10" stroke-linecap="round"/>
<path d="M674.087 327.816C674.087 330.731 671.723 333.095 668.808 333.095H665.485" stroke="#573240" stroke-width="5" stroke-miterlimit="10" stroke-linecap="round"/>
<path d="M651.861 290.33C646.594 283.472 647.677 259.197 646.938 258.04C645.599 255.945 629.224 247.542 623.51 247.579C620.237 247.601 602.464 257.278 602.464 268.612C602.464 276.231 608.274 286.231 622.75 289.755C637.227 293.28 651.861 290.33 651.861 290.33Z" fill="#573240"/>
<path d="M638.144 295.076V276.485L617.307 274.782L603.702 295.076C603.702 295.076 603.829 307.979 621.353 307.979C638.878 307.979 638.144 295.076 638.144 295.076Z" fill="#F6ACC1"/>
<path d="M642.989 270.517C642.572 274.959 641.19 279.497 640.11 282.512C639.385 284.533 637.241 285.667 635.16 285.138L627.01 283.062C623.301 282.118 620.589 279.027 620.065 275.324L615.472 274.654C612.217 274.179 609.961 271.156 610.436 267.902L610.608 266.715C611.083 263.46 614.106 261.204 617.363 261.679L619.389 261.974C620.393 262.12 621.27 262.589 621.93 263.262C623.51 258.87 626.282 254.515 631.037 254.802C631.751 254.846 632.424 254.914 633.061 255.005C633.319 257.086 634.211 260.427 637.181 262.563C639.68 264.36 641.771 264.563 643.013 264.454C643.255 266.371 643.185 268.436 642.989 270.517Z" fill="#F6ACC1"/>
<path d="M616.21 264.702C618.279 265.003 619.711 266.925 619.41 268.994" stroke="#573240" stroke-width="5" stroke-miterlimit="10" stroke-linecap="round"/>
<path d="M625.514 264.023C626.911 261.766 630.059 261.183 632.544 262.722" stroke="#573240" stroke-width="5" stroke-miterlimit="10" stroke-linecap="round"/>
<path d="M643.042 264.282C639.009 263.813 635.513 265.67 634.867 273.053" stroke="#573240" stroke-width="4" stroke-miterlimit="10" stroke-linecap="round"/>
<path d="M640.971 269.596C641.098 268.729 640.764 267.962 640.226 267.883C639.689 267.805 639.15 268.445 639.024 269.312C638.897 270.18 639.231 270.947 639.769 271.025C640.306 271.103 640.845 270.464 640.971 269.596Z" fill="#573240"/>
<path d="M630.744 267.573C630.87 266.704 630.536 265.937 629.998 265.859C629.46 265.78 628.921 266.42 628.794 267.289C628.668 268.157 629.002 268.924 629.54 269.003C630.078 269.081 630.617 268.441 630.744 267.573Z" fill="#573240"/>
<path d="M620.258 274.581C620.258 278.853 623.156 282.582 627.296 283.636L635.735 285.711C637.815 286.241 639.959 285.106 640.683 283.085" stroke="#573240" stroke-width="5" stroke-miterlimit="10" stroke-linecap="round"/>
<path d="M630.677 273.953C630.899 275.845 632.611 276.954 634.504 276.732" stroke="#573240" stroke-width="4" stroke-miterlimit="10" stroke-linecap="round"/>
<path d="M1086.02 431.666H1055.89C1048.48 431.666 1043.43 424.142 1046.25 417.285L1058.43 387.664H1083.48L1095.66 417.285C1098.47 424.142 1093.43 431.666 1086.02 431.666Z" fill="#FF6E00"/>
<path d="M1070.95 400.35C1078.09 400.35 1083.87 395.773 1083.87 390.127C1083.87 384.481 1078.09 379.905 1070.95 379.905C1063.82 379.905 1058.04 384.481 1058.04 390.127C1058.04 395.773 1063.82 400.35 1070.95 400.35Z" fill="#573240"/>
<path d="M1074.81 394.918V296.804" stroke="#F1B104" stroke-width="4" stroke-miterlimit="10" stroke-linecap="round"/>
<path d="M1086.29 271.807C1086.29 280.718 1074.81 299.71 1074.81 299.71C1074.81 299.71 1063.33 280.718 1063.33 271.807C1063.33 262.896 1068.47 255.673 1074.81 255.673C1081.15 255.673 1086.29 262.896 1086.29 271.807Z" fill="#F1B104"/>
<path d="M1058.63 308.488C1061.69 313.507 1061.77 328.152 1061.77 328.152C1061.77 328.152 1048.77 321.405 1045.7 316.386C1042.63 311.367 1043.04 305.531 1046.61 303.35C1050.18 301.169 1055.56 303.469 1058.63 308.488Z" fill="#F1B104"/>
<path d="M1061.69 333.803C1065.96 336.063 1071.51 347.575 1071.51 347.575C1071.51 347.575 1058.87 349.452 1054.6 347.191C1050.33 344.931 1048.46 340.102 1050.41 336.405C1052.37 332.708 1057.42 331.543 1061.69 333.803Z" fill="#F1B104"/>
<path d="M1093.45 347.46C1091.31 352.503 1081.46 361.012 1081.46 361.012C1081.46 361.012 1080.74 348.022 1082.88 342.978C1085.02 337.935 1089.12 334.85 1092.04 336.087C1094.95 337.325 1095.58 342.417 1093.45 347.46Z" fill="#F1B104"/>
<path d="M1064.8 364.467C1067.27 369.54 1065.88 383.593 1065.88 383.593C1065.88 383.593 1053.96 376.021 1051.49 370.948C1049.02 365.875 1049.99 360.311 1053.67 358.522C1057.34 356.733 1062.32 359.395 1064.8 364.467Z" fill="#F1B104"/>
<path d="M1112.99 359.141C1109.7 362.167 1098.81 364.392 1098.81 364.392C1098.81 364.392 1101.93 353.721 1105.22 350.695C1108.51 347.67 1112.92 347.108 1115.06 349.44C1117.21 351.772 1116.28 356.115 1112.99 359.141Z" fill="#F1B104"/>
<path d="M1090.46 386.099C1088.54 388.288 1081.63 390.486 1081.63 390.486C1081.63 390.486 1082.92 383.351 1084.84 381.162C1086.76 378.973 1089.58 378.304 1091.13 379.667C1092.69 381.03 1092.39 383.91 1090.46 386.099Z" fill="#F1B104"/>
<path d="M1098.67 314.299C1093.43 319.949 1074.98 325.241 1074.98 325.241C1074.98 325.241 1078.88 306.448 1084.12 300.798C1089.36 295.148 1096.87 293.59 1100.89 297.318C1104.91 301.046 1103.91 308.649 1098.67 314.299Z" fill="#F1B104"/>
<path d="M1082.03 390.038V359.472" stroke="#F1B104" stroke-width="4" stroke-miterlimit="10" stroke-linecap="round"/>
<path d="M1082.03 385.962C1082.03 380.088 1084.84 374.567 1089.58 371.102L1103.56 360.888" stroke="#F1B104" stroke-width="4" stroke-miterlimit="10" stroke-linecap="round"/>
<path d="M1074.81 361.905C1074.81 356.542 1073.54 351.255 1071.09 346.481L1061.17 327.104" stroke="#F1B104" stroke-width="4" stroke-miterlimit="10" stroke-linecap="round"/>
<path d="M1060.69 378.673L1064.06 381.07C1066.28 382.653 1067.6 385.214 1067.6 387.943V395.093" stroke="#F1B104" stroke-width="4" stroke-miterlimit="10" stroke-linecap="round"/>
<path d="M1091.94 291.49C1093.47 291.49 1094.71 290.249 1094.71 288.718C1094.71 287.187 1093.47 285.946 1091.94 285.946C1090.41 285.946 1089.17 287.187 1089.17 288.718C1089.17 290.249 1090.41 291.49 1091.94 291.49Z" stroke="#573240" stroke-width="4" stroke-miterlimit="10" stroke-linecap="round"/>
<path d="M1095.28 344.747C1096.94 344.747 1098.29 343.398 1098.29 341.733C1098.29 340.068 1096.94 338.719 1095.28 338.719C1093.61 338.719 1092.26 340.068 1092.26 341.733C1092.26 343.398 1093.61 344.747 1095.28 344.747Z" stroke="#573240" stroke-width="4" stroke-miterlimit="10" stroke-linecap="round"/>
<path d="M1054.03 386.365C1055.56 386.365 1056.8 385.124 1056.8 383.593C1056.8 382.062 1055.56 380.821 1054.03 380.821C1052.5 380.821 1051.26 382.062 1051.26 383.593C1051.26 385.124 1052.5 386.365 1054.03 386.365Z" stroke="#573240" stroke-width="4" stroke-miterlimit="10" stroke-linecap="round"/>
<path d="M1060.56 315.725C1062.31 315.725 1063.72 314.311 1063.72 312.568C1063.72 310.824 1062.31 309.41 1060.56 309.41C1058.82 309.41 1057.4 310.824 1057.4 312.568C1057.4 314.311 1058.82 315.725 1060.56 315.725Z" stroke="#573240" stroke-width="4" stroke-miterlimit="10" stroke-linecap="round"/>
<path d="M1086.88 365.524C1088.07 365.524 1089.03 364.56 1089.03 363.371C1089.03 362.182 1088.07 361.218 1086.88 361.218C1085.69 361.218 1084.73 362.182 1084.73 363.371C1084.73 364.56 1085.69 365.524 1086.88 365.524Z" stroke="#573240" stroke-width="4" stroke-miterlimit="10" stroke-linecap="round"/>
<path d="M1070.38 259.583C1071.91 259.583 1073.15 258.343 1073.15 256.812C1073.15 255.281 1071.91 254.04 1070.38 254.04C1068.85 254.04 1067.61 255.281 1067.61 256.812C1067.61 258.343 1068.85 259.583 1070.38 259.583Z" stroke="#573240" stroke-width="4" stroke-miterlimit="10" stroke-linecap="round"/>
<path d="M1023.23 805.013H298.514C281.505 805.013 267.716 791.224 267.716 774.215V455.173H1054.03V774.215C1054.03 791.224 1040.24 805.013 1023.23 805.013Z" fill="#F1B104"/>
<path d="M267.716 476.091V455.173H1054.03V455.363L267.716 476.091Z" fill="#573240"/>
<path d="M1105.84 431.666H209.833V455.173H1105.84V431.666Z" fill="white" stroke="#573240" stroke-width="5" stroke-miterlimit="10" stroke-linecap="round"/>
<path d="M1011.7 72.7954H877.6V270.898H1011.7V72.7954Z" fill="white" stroke="#573240" stroke-width="5" stroke-miterlimit="10" stroke-linecap="round"/>
<path d="M929.222 106.724H927.433C922.197 106.724 917.953 110.969 917.953 116.205C917.953 117.316 918.853 118.217 919.965 118.217H962.191" stroke="#F1B104" stroke-width="5" stroke-miterlimit="10" stroke-linecap="round"/>
<path d="M942.451 101.231H939.8C932.854 101.231 927.223 106.862 927.223 113.808V113.902C927.223 116.285 929.155 118.217 931.538 118.217" stroke="#F1B104" stroke-width="5" stroke-miterlimit="10" stroke-linecap="round"/>
<path d="M964.866 104.692C963.365 100.191 959.117 96.9463 954.111 96.9463H951.483C945.223 96.9463 940.148 102.021 940.148 108.282V113.631C940.148 116.163 942.201 118.217 944.734 118.217" stroke="#F1B104" stroke-width="5" stroke-miterlimit="10" stroke-linecap="round"/>
<path d="M955.288 115.472V112.824C955.288 108.333 958.928 104.693 963.419 104.693H964.188C968.162 104.693 971.887 106.626 974.176 109.875L976.499 113.174C977.992 115.294 976.475 118.217 973.882 118.217H958.033C956.516 118.217 955.288 116.988 955.288 115.472Z" stroke="#F1B104" stroke-width="5" stroke-miterlimit="10" stroke-linecap="round"/>
<path d="M898.284 141.409H953.905" stroke="#573240" stroke-width="5" stroke-miterlimit="10" stroke-linecap="round"/>
<path d="M898.284 155.991H953.905" stroke="#573240" stroke-width="5" stroke-miterlimit="10" stroke-linecap="round"/>
<path d="M898.284 170.573H936.682" stroke="#573240" stroke-width="5" stroke-miterlimit="10" stroke-linecap="round"/>
<path d="M898.284 199.737H925.201" stroke="#573240" stroke-width="5" stroke-miterlimit="10" stroke-linecap="round"/>
<path d="M898.284 214.319H925.201" stroke="#573240" stroke-width="5" stroke-miterlimit="10" stroke-linecap="round"/>
<path d="M898.284 185.155H968.258" stroke="#573240" stroke-width="5" stroke-miterlimit="10" stroke-linecap="round"/>
<path d="M987.145 141.409H997.145" stroke="#F1B104" stroke-width="5" stroke-miterlimit="10" stroke-linecap="round"/>
<path d="M987.145 155.991H997.145" stroke="#F1B104" stroke-width="5" stroke-miterlimit="10" stroke-linecap="round"/>
<path d="M987.145 170.573H997.145" stroke="#F1B104" stroke-width="5" stroke-miterlimit="10" stroke-linecap="round"/>
<path d="M987.145 185.155H997.145" stroke="#F1B104" stroke-width="5" stroke-miterlimit="10" stroke-linecap="round"/>
<path d="M987.145 199.737H997.145" stroke="#F1B104" stroke-width="5" stroke-miterlimit="10" stroke-linecap="round"/>
<path d="M987.145 214.319H997.145" stroke="#F1B104" stroke-width="5" stroke-miterlimit="10" stroke-linecap="round"/>
<path d="M862.148 72.7954H728.048V270.898H862.148V72.7954Z" fill="white" stroke="#573240" stroke-width="5" stroke-miterlimit="10" stroke-linecap="round"/>
<path d="M835.009 141.409H845.01" stroke="#F1B104" stroke-width="5" stroke-miterlimit="10" stroke-linecap="round"/>
<path d="M835.009 155.991H845.01" stroke="#F1B104" stroke-width="5" stroke-miterlimit="10" stroke-linecap="round"/>
<path d="M835.009 170.573H845.01" stroke="#F1B104" stroke-width="5" stroke-miterlimit="10" stroke-linecap="round"/>
<path d="M835.009 185.155H845.01" stroke="#F1B104" stroke-width="5" stroke-miterlimit="10" stroke-linecap="round"/>
<path d="M835.009 199.737H845.01" stroke="#F1B104" stroke-width="5" stroke-miterlimit="10" stroke-linecap="round"/>
<path d="M835.009 214.319H845.01" stroke="#F1B104" stroke-width="5" stroke-miterlimit="10" stroke-linecap="round"/>
<path d="M835.009 228.959H845.01" stroke="#F1B104" stroke-width="5" stroke-miterlimit="10" stroke-linecap="round"/>
<path d="M811.873 97.2212V106.101C811.873 114.75 804.86 121.762 796.212 121.762H793.059C784.408 121.762 777.396 114.75 777.396 106.101V97.9697C779.565 99.8787 786.317 101.271 794.316 101.271C803.324 101.271 810.754 99.5032 811.834 97.2212H811.873V97.2212Z" stroke="#F1B104" stroke-width="5" stroke-miterlimit="10" stroke-linecap="round"/>
<path d="M811.967 96.6474C811.967 96.843 811.92 97.0334 811.834 97.2212C810.754 99.5032 803.324 101.271 794.316 101.271C786.317 101.271 779.565 99.8787 777.395 97.9697C776.918 97.5498 776.663 97.1064 776.663 96.6474C776.663 94.0916 784.565 92.0208 794.316 92.0208C804.065 92.0208 811.967 94.0916 811.967 96.6474Z" fill="#F1B104"/>
<path d="M811.958 97.2204H816.288C819.706 97.2204 822.477 99.9917 822.477 103.41C822.477 106.829 819.706 109.6 816.288 109.6H811.619" stroke="#F1B104" stroke-width="5" stroke-miterlimit="10" stroke-linecap="round"/>
<path d="M746.149 141.409H801.77" stroke="#573240" stroke-width="5" stroke-miterlimit="10" stroke-linecap="round"/>
<path d="M746.149 155.991H801.77" stroke="#573240" stroke-width="5" stroke-miterlimit="10" stroke-linecap="round"/>
<path d="M746.149 185.155H793.158" stroke="#573240" stroke-width="5" stroke-miterlimit="10" stroke-linecap="round"/>
<path d="M746.149 199.737H793.709" stroke="#573240" stroke-width="5" stroke-miterlimit="10" stroke-linecap="round"/>
<path d="M746.149 214.319H773.065" stroke="#573240" stroke-width="5" stroke-miterlimit="10" stroke-linecap="round"/>
<path d="M746.149 228.959H773.065" stroke="#573240" stroke-width="5" stroke-miterlimit="10" stroke-linecap="round"/>
<path d="M746.149 170.573H816.122" stroke="#573240" stroke-width="5" stroke-miterlimit="10" stroke-linecap="round"/>
<path d="M607.341 547.098H470.966V546.078C470.966 540.48 475.504 535.942 481.103 535.942H597.205C602.803 535.942 607.341 540.48 607.341 546.078V547.098Z" fill="white"/>
<path d="M470.966 837.395V547.099H559.256V837.395" stroke="#573240" stroke-width="5" stroke-miterlimit="10" stroke-linecap="round"/>
<path d="M559.256 837.395V547.099H607.341V837.395" stroke="#573240" stroke-width="5" stroke-miterlimit="10" stroke-linecap="round"/>
<path d="M495.613 477.368C471.232 477.368 456.682 496.003 463.114 518.989L470.979 547.099H559.269L551.404 518.989C544.972 496.003 519.993 477.368 495.613 477.368Z" stroke="#573240" stroke-width="5" stroke-miterlimit="10" stroke-linecap="round"/>
<path d="M507.388 547.099L495.487 477.656" stroke="#573240" stroke-width="5" stroke-miterlimit="10" stroke-linecap="round"/>
<path d="M539.393 498.519C521.57 506.23 510.945 525.882 514.858 546.541" stroke="#573240" stroke-width="5" stroke-miterlimit="10" stroke-linecap="round"/>
<path d="M462.801 499.467C483.691 503.987 499.41 523.595 499.41 547.099" stroke="#573240" stroke-width="5" stroke-miterlimit="10" stroke-linecap="round"/>
<path d="M470.966 767.225C470.966 761.479 475.907 756.82 482.003 756.82H548.22C554.315 756.82 559.256 761.479 559.256 767.225" stroke="#573240" stroke-width="5" stroke-miterlimit="10" stroke-linecap="round"/>
<path d="M559.259 767.225C559.259 761.479 564.2 756.82 570.296 756.82H596.324C602.42 756.82 607.361 761.479 607.361 767.225" stroke="#573240" stroke-width="5" stroke-miterlimit="10" stroke-linecap="round"/>
<path d="M405.999 805.012H302.375L354.044 561.385H354.331L405.999 805.012Z" fill="#573240"/>
<path d="M161.702 837.395L168.57 805.008H302.357L295.488 837.395" stroke="#573240" stroke-width="5" stroke-miterlimit="10" stroke-linecap="round"/>
<path d="M405.156 805.008L412.025 837.395" stroke="#573240" stroke-width="5" stroke-miterlimit="10" stroke-linecap="round"/>
<path d="M302.376 805.013H168.591L220.259 561.385H354.045L302.376 805.013Z" fill="white" stroke="#573240" stroke-width="5" stroke-miterlimit="10" stroke-linecap="round"/>
<path d="M318.452 577.943L306.551 631.387H274.689L286.59 577.943H318.452Z" fill="#FDE5E3"/>
<path d="M220.257 636.245L254.544 619.101" stroke="#573240" stroke-width="5" stroke-miterlimit="10" stroke-linecap="round"/>
<path d="M216.632 651.215L301.119 608.971" stroke="#573240" stroke-width="5" stroke-miterlimit="10" stroke-linecap="round"/>
<path d="M309.05 691.835H215.017L219.181 673.034H313.214L309.05 691.835Z" fill="#B2DDDA"/>
<path d="M210.711 683.511H296.133" stroke="#573240" stroke-width="5" stroke-miterlimit="10" stroke-linecap="round"/>
<path d="M207.554 697.863H292.975" stroke="#573240" stroke-width="5" stroke-miterlimit="10" stroke-linecap="round"/>
<path d="M259.274 782.58C275.793 782.58 289.185 769.189 289.185 752.669C289.185 736.15 275.793 722.758 259.274 722.758C242.754 722.758 229.363 736.15 229.363 752.669C229.363 769.189 242.754 782.58 259.274 782.58Z" fill="#F1B104"/>
<path d="M253.82 604.111C261.495 604.111 267.716 597.889 267.716 590.214C267.716 582.54 261.495 576.318 253.82 576.318C246.145 576.318 239.924 582.54 239.924 590.214C239.924 597.889 246.145 604.111 253.82 604.111Z" fill="#F6ACC1"/>
<path d="M196.819 745.88H251.947" stroke="#573240" stroke-width="5" stroke-miterlimit="10" stroke-linecap="round"/>
<path d="M194.26 757.936H260.316" stroke="#573240" stroke-width="5" stroke-miterlimit="10" stroke-linecap="round"/>
<path d="M231.974 601.906C240.259 591.159 257.296 583.787 276.967 583.787C296.927 583.787 314.174 591.377 322.319 602.381" stroke="#573240" stroke-width="5" stroke-miterlimit="10" stroke-linecap="round"/>
<path d="M776.155 406.522H690.438L719.143 346.203H804.86L776.155 406.522Z" fill="#A9D8D5"/>
<path d="M771.275 406.522H685.558L714.263 346.203H799.98L771.275 406.522Z" stroke="#573240" stroke-width="5" stroke-miterlimit="10" stroke-linecap="round"/>
<path d="M762.02 431.666H738.019L729.407 391.093H753.408L762.02 431.666Z" stroke="#573240" stroke-width="5" stroke-miterlimit="10" stroke-linecap="round"/>
<path d="M784.547 841.205H1105.84" stroke="#573240" stroke-width="5" stroke-miterlimit="10" stroke-linecap="round"/>
<path d="M1032.96 346.964L1003.7 451.285L1008.46 480.619C1008.46 480.619 946.938 507.633 898.746 455.172L898.284 367.089L857.318 366.612L865.316 325.673C868.029 311.998 878.693 301.289 892.362 298.524L928.877 291.136C933.022 290.297 936.275 287.082 937.159 282.949L937.592 280.931H974.412L975.279 282.696C977.256 286.727 980.764 289.798 985.021 291.225L1007.43 298.739C1027.43 305.445 1038.66 326.655 1032.96 346.964Z" fill="#573240"/>
<path d="M1006.18 793.585C1006.18 793.585 972.968 801.966 948.204 793.585L937.848 574.443L910.937 630.093C947.131 687.181 945.607 761.401 945.607 761.401C936.464 769.019 894.176 783.679 894.176 783.679L844.882 665.69C836.267 645.066 835.86 621.93 843.748 601.016L898.746 455.172C912.766 470.435 927.916 478.971 942.349 483.398C950.647 485.95 958.708 487.141 966.179 487.471C988.621 488.473 1005.77 481.736 1008.18 480.74L1008.46 636.83C1008.46 636.83 1039.32 718.151 1006.18 793.585Z" fill="#A9D8D5"/>
<path d="M945.606 761.4C945.606 761.4 947.13 687.181 910.938 630.093L966.178 515.859H977.547" stroke="#573240" stroke-width="5" stroke-miterlimit="10" stroke-linecap="round"/>
<path d="M959.386 790.866L904.349 841.204H880.969V838.945C880.969 835.993 881.945 833.128 883.731 830.776C888.683 824.255 898.493 809.139 897.731 792.567C897.731 792.567 916.951 787.627 944.168 769.843L959.454 784.424C961.301 786.186 961.27 789.144 959.386 790.866Z" fill="#573240"/>
<path d="M959.454 784.999L902.914 836.612H879.533" stroke="white" stroke-width="5" stroke-miterlimit="10" stroke-linecap="round"/>
<path d="M894.176 783.679L897.731 792.568C897.731 792.568 920.634 785.977 944.168 769.843L943.901 762.656C943.901 762.656 921.097 774.536 894.176 783.679Z" fill="white"/>
<path d="M1003.51 805.013L1010.98 835.322C1011.71 838.314 1009.45 841.205 1006.37 841.205H927.005C924.164 841.205 922.808 837.712 924.904 835.794L958.559 805.013H1003.51Z" fill="#573240"/>
<path d="M1012.11 836.038H924.135" stroke="white" stroke-width="5" stroke-miterlimit="10" stroke-linecap="round"/>
<path d="M1006.18 793.584L1003.51 805.013C1003.51 805.013 972.655 810.6 958.559 805.013V796.255C958.559 796.255 980.147 799.298 1006.18 793.584Z" fill="white"/>
<path d="M857.319 366.612L913.511 367.267L898.223 415.65C895.373 424.671 887.003 430.805 877.541 430.805H735.328C734.188 430.805 733.728 429.337 734.664 428.688C744.102 422.142 778.017 401.45 854.367 381.279L857.319 366.612Z" fill="#F1B104"/>
<path d="M911.907 370.177L916.584 355.374" stroke="#F1B104" stroke-width="5" stroke-miterlimit="10" stroke-linecap="round"/>
<path d="M974.412 280.931H937.592L940.273 267.847H968.275L974.412 280.931Z" fill="#F1B104"/>
<path d="M968.431 255.568C970.666 256.249 972.291 258.589 972.291 261.045V262.97C972.291 265.98 969.851 268.421 966.84 268.421H959.102C958.247 272.009 955.018 274.677 951.169 274.677H937.719C936.393 274.677 935.317 273.602 935.317 272.275V263.184L932.592 262.699C931.807 262.558 931.366 261.71 931.703 260.985L939.018 245.29C939.754 245.46 940.52 245.549 941.311 245.549C944.02 245.549 946.469 244.498 948.235 242.802H950.034C951.849 242.802 953.32 244.273 953.32 246.088V252.874C953.32 256.046 955.892 258.615 959.063 258.615C959.038 256.972 960.356 255.624 961.998 255.613L968.431 255.568Z" fill="#F1B104"/>
<path d="M961.902 262.66C961.902 260.342 963.78 258.463 966.098 258.463" stroke="#573240" stroke-width="5" stroke-miterlimit="10" stroke-linecap="round"/>
<path d="M939.156 275.25H951.17C955.206 275.25 958.558 272.317 959.209 268.465H965.26" stroke="#573240" stroke-width="5" stroke-miterlimit="10" stroke-linecap="round"/>
<path d="M939.443 249.405L944.913 250.052" stroke="#573240" stroke-width="5" stroke-miterlimit="10" stroke-linecap="round"/>
<path d="M941.749 256.812C942.362 256.812 942.859 256.087 942.859 255.194C942.859 254.3 942.362 253.575 941.749 253.575C941.136 253.575 940.64 254.3 940.64 255.194C940.64 256.087 941.136 256.812 941.749 256.812Z" fill="#573240"/>
<path d="M935.891 266.03C935.891 266.03 939.141 266.317 940.353 264.282" stroke="#573240" stroke-width="5" stroke-miterlimit="10" stroke-linecap="round" stroke-linejoin="round"/>
<path d="M968.431 255.568C967.928 255.415 967.393 255.592 966.84 255.592H963.596C961.564 255.592 959.828 256.841 959.108 258.615H959.063C955.892 258.615 953.321 256.046 953.321 252.874V246.088C953.321 244.273 951.85 242.802 950.035 242.802H948.235C946.469 244.498 944.02 245.549 941.311 245.549C935.941 245.549 931.588 241.42 931.588 236.324C931.588 231.231 935.941 227.102 941.311 227.102C946.196 227.102 950.238 230.516 950.932 234.965C962.31 233.419 964.084 242.802 964.084 242.802C964.084 242.802 970.369 241.086 971.798 246.42C972.748 249.969 970.5 253.229 968.431 255.568Z" fill="#FCD4D0"/>
<path d="M423.991 375.981C423.317 377.287 421.982 378.097 420.515 378.097H363.866V375.367C363.866 369.744 368.442 365.168 374.065 365.168H375.672C378.092 361.841 382.013 359.674 386.431 359.674H388.908C391.119 357.056 394.425 355.388 398.117 355.388H400.743C405.784 355.388 410.262 358.509 412.024 363.193C415.767 363.544 419.206 365.518 421.393 368.624L423.718 371.922C424.562 373.122 424.669 374.678 423.991 375.981Z" fill="#F1B104"/>
<path d="M375.854 365.886H374.065C368.83 365.886 364.585 370.13 364.585 375.366V377.378H404.664" stroke="#573240" stroke-width="5" stroke-miterlimit="10" stroke-linecap="round"/>
<path d="M373.855 377.378V372.969C373.855 366.023 379.486 360.392 386.432 360.392H389.083" stroke="#573240" stroke-width="5" stroke-miterlimit="10" stroke-linecap="round"/>
<path d="M386.78 377.378V367.443C386.78 361.182 391.855 356.107 398.115 356.107H400.743C405.749 356.107 409.997 359.352 411.498 363.853" stroke="#573240" stroke-width="5" stroke-miterlimit="10" stroke-linecap="round"/>
<path d="M401.919 374.633V371.985C401.919 367.494 405.56 363.854 410.05 363.854H410.82C414.794 363.854 418.519 365.787 420.808 369.036L423.131 372.335C424.624 374.455 423.108 377.378 420.514 377.378H404.665C403.149 377.378 401.919 376.149 401.919 374.633Z" stroke="#573240" stroke-width="5" stroke-miterlimit="10" stroke-linecap="round"/>
<path d="M351.368 375.981C350.694 377.287 349.359 378.097 347.892 378.097H291.243V375.367C291.243 369.744 295.819 365.168 301.442 365.168H303.049C305.469 361.841 309.39 359.674 313.808 359.674H316.285C318.495 357.056 321.802 355.388 325.494 355.388H328.12C333.161 355.388 337.638 358.509 339.401 363.193C343.144 363.544 346.583 365.518 348.77 368.624L351.095 371.922C351.939 373.122 352.046 374.678 351.368 375.981Z" fill="#F1B104"/>
<path d="M303.231 365.886H301.442C296.206 365.886 291.962 370.13 291.962 375.366V377.378H332.041" stroke="#573240" stroke-width="5" stroke-miterlimit="10" stroke-linecap="round"/>
<path d="M301.232 377.378V372.969C301.232 366.023 306.863 360.392 313.809 360.392H316.46" stroke="#573240" stroke-width="5" stroke-miterlimit="10" stroke-linecap="round"/>
<path d="M314.157 377.378V367.443C314.157 361.182 319.232 356.107 325.492 356.107H328.12C333.126 356.107 337.374 359.352 338.875 363.853" stroke="#573240" stroke-width="5" stroke-miterlimit="10" stroke-linecap="round"/>
<path d="M329.296 374.633V371.985C329.296 367.494 332.936 363.854 337.427 363.854H338.196C342.171 363.854 345.896 365.787 348.184 369.036L350.508 372.335C352.001 374.455 350.484 377.378 347.891 377.378H332.041C330.525 377.378 329.296 376.149 329.296 374.633Z" stroke="#573240" stroke-width="5" stroke-miterlimit="10" stroke-linecap="round"/>
<path d="M417.386 407.383C421.278 407.383 424.433 404.228 424.433 400.335C424.433 396.443 421.278 393.287 417.386 393.287C413.493 393.287 410.338 396.443 410.338 400.335C410.338 404.228 413.493 407.383 417.386 407.383Z" fill="#A9D8D5"/>
<path d="M427.652 397.131C431.545 397.131 434.7 393.976 434.7 390.083C434.7 386.191 431.545 383.036 427.652 383.036C423.76 383.036 420.604 386.191 420.604 390.083C420.604 393.976 423.76 397.131 427.652 397.131Z" fill="#F6ACC1"/>
<path d="M430.552 419.581C430.709 419.546 430.866 419.51 431.021 419.47C431.87 419.254 432.697 418.902 433.48 418.511C435.018 417.743 436.421 416.712 437.622 415.481C440.094 412.949 441.659 409.607 442.053 406.093C442.121 405.483 442.155 404.869 442.155 404.255C442.155 404.255 411.359 404.255 411.358 404.255C411.275 404.255 411.542 406.72 411.579 406.944C411.725 407.823 411.944 408.691 412.234 409.535C412.798 411.178 413.631 412.727 414.692 414.101C415.726 415.44 416.975 416.612 418.382 417.552C419.25 418.131 420.158 418.663 421.124 419.063C422.048 419.445 422.995 419.489 423.932 419.772C425.521 420.252 426.638 421.76 426.638 423.419V425.382C426.638 428.853 423.916 431.666 420.561 431.666H432.953C429.597 431.666 426.876 428.853 426.876 425.382C426.876 425.382 426.876 423.419 426.876 423.418C426.876 422.279 427.399 421.18 428.283 420.461C428.94 419.926 429.75 419.762 430.552 419.581Z" stroke="#573240" stroke-width="5" stroke-miterlimit="10" stroke-linecap="round"/>
<path d="M423.515 403.969L443.04 383.036" stroke="#573240" stroke-width="5" stroke-miterlimit="10" stroke-linecap="round"/>
<path d="M435.093 409.665C439.493 409.665 443.059 406.098 443.059 401.699C443.059 397.299 439.493 393.733 435.093 393.733C430.694 393.733 427.127 397.299 427.127 401.699C427.127 406.098 430.694 409.665 435.093 409.665Z" fill="#FF6E00"/>
<path d="M371.745 408.236C375.873 408.236 379.22 404.89 379.22 400.762C379.22 396.634 375.873 393.287 371.745 393.287C367.617 393.287 364.271 396.634 364.271 400.762C364.271 404.89 367.617 408.236 371.745 408.236Z" fill="#F1B104"/>
<path d="M381.437 397.131C385.33 397.131 388.485 393.976 388.485 390.083C388.485 386.191 385.33 383.036 381.437 383.036C377.545 383.036 374.389 386.191 374.389 390.083C374.389 393.976 377.545 397.131 381.437 397.131Z" fill="#A9D8D5"/>
<path d="M377.301 403.969L396.826 383.036" stroke="#FF6E00" stroke-width="5" stroke-miterlimit="10" stroke-linecap="round"/>
<path d="M388.879 409.665C393.279 409.665 396.845 406.098 396.845 401.699C396.845 397.299 393.279 393.733 388.879 393.733C384.479 393.733 380.913 397.299 380.913 401.699C380.913 406.098 384.479 409.665 388.879 409.665Z" fill="#573240"/>
<path d="M384.05 419.581C384.207 419.546 384.363 419.51 384.518 419.47C385.367 419.254 386.195 418.902 386.977 418.511C388.515 417.743 389.918 416.712 391.119 415.481C393.591 412.949 395.156 409.607 395.55 406.093C395.619 405.483 395.653 404.869 395.653 404.255C395.653 404.255 364.857 404.255 364.855 404.255C364.772 404.255 365.039 406.72 365.076 406.944C365.222 407.823 365.441 408.691 365.731 409.535C366.295 411.178 367.128 412.727 368.19 414.101C369.223 415.44 370.472 416.612 371.879 417.552C372.747 418.131 373.655 418.663 374.621 419.063C375.545 419.445 376.492 419.489 377.429 419.772C379.018 420.252 380.135 421.76 380.135 423.419V425.382C380.135 428.853 377.413 431.666 374.058 431.666H386.45C383.094 431.666 380.373 428.853 380.373 425.382C380.373 425.382 380.373 423.419 380.373 423.418C380.373 422.279 380.896 421.18 381.78 420.461C382.437 419.926 383.247 419.762 384.05 419.581Z" stroke="#573240" stroke-width="5" stroke-miterlimit="10" stroke-linecap="round"/>
<path d="M325.53 408.236C329.896 408.236 333.435 404.697 333.435 400.331C333.435 395.965 329.896 392.426 325.53 392.426C321.164 392.426 317.625 395.965 317.625 400.331C317.625 404.697 321.164 408.236 325.53 408.236Z" fill="#A9D8D5"/>
<path d="M335.222 397.131C339.115 397.131 342.27 393.976 342.27 390.083C342.27 386.191 339.115 383.036 335.222 383.036C331.33 383.036 328.175 386.191 328.175 390.083C328.175 393.976 331.33 397.131 335.222 397.131Z" fill="#573240"/>
<path d="M331.086 403.969L350.611 383.036" stroke="#F1B104" stroke-width="5" stroke-miterlimit="10" stroke-linecap="round"/>
<path d="M338.14 419.581C338.297 419.546 338.454 419.51 338.609 419.47C339.458 419.254 340.285 418.902 341.068 418.511C342.605 417.742 344.009 416.711 345.21 415.481C347.682 412.949 349.246 409.607 349.641 406.092C349.709 405.483 349.743 404.869 349.743 404.255C349.743 404.255 318.947 404.255 318.946 404.255C318.863 404.255 319.13 406.72 319.167 406.943C319.313 407.823 319.532 408.691 319.822 409.535C320.386 411.178 321.219 412.726 322.28 414.101C323.314 415.44 324.563 416.612 325.97 417.552C326.837 418.131 327.746 418.663 328.712 419.063C329.636 419.445 330.583 419.489 331.52 419.772C333.109 420.252 334.225 421.76 334.225 423.419V425.382C334.225 428.853 331.504 431.666 328.149 431.666H340.54C337.185 431.666 334.464 428.853 334.464 425.382C334.464 425.382 334.464 423.419 334.464 423.418C334.464 422.279 334.987 421.18 335.871 420.461C336.528 419.926 337.338 419.762 338.14 419.581Z" stroke="#573240" stroke-width="5" stroke-miterlimit="10" stroke-linecap="round"/>
<path d="M342.654 409.645C347.048 409.645 350.61 406.083 350.61 401.689C350.61 397.295 347.048 393.733 342.654 393.733C338.26 393.733 334.698 397.295 334.698 401.689C334.698 406.083 338.26 409.645 342.654 409.645Z" fill="#F6ACC1"/>
<path d="M259.162 413.869L255.188 431.666H239.576L235.763 414.594C236.611 414.998 237.693 415.243 239.06 415.243C240.872 415.243 243.045 414.873 243.991 413.436C243.879 416.138 245.46 419.56 249.257 419.549C252.006 419.541 253.594 416.902 253.998 415.042C253.998 415.042 256.932 415.264 259.162 413.869Z" fill="#F1B104"/>
<path d="M239.06 415.243C240.872 415.243 243.045 414.873 243.992 413.435C243.879 416.139 245.459 419.561 249.256 419.549C252.007 419.541 253.594 416.902 253.999 415.043C253.999 415.043 261.153 415.584 261.614 409.661C262.039 404.198 254.55 399.887 247.25 399.887C239.953 399.887 232.886 404.261 232.886 409.661C232.886 411.932 234.038 415.243 239.06 415.243Z" fill="#A9D8D5"/>
<path d="M238.717 410.513C239.394 410.513 239.943 409.964 239.943 409.287C239.943 408.61 239.394 408.061 238.717 408.061C238.04 408.061 237.491 408.61 237.491 409.287C237.491 409.964 238.04 410.513 238.717 410.513Z" fill="#573240"/>
<path d="M241.734 405.597C242.411 405.597 242.96 405.048 242.96 404.371C242.96 403.694 242.411 403.145 241.734 403.145C241.057 403.145 240.508 403.694 240.508 404.371C240.508 405.048 241.057 405.597 241.734 405.597Z" fill="#573240"/>
<path d="M245.459 407.679C246.136 407.679 246.685 407.13 246.685 406.453C246.685 405.776 246.136 405.227 245.459 405.227C244.782 405.227 244.233 405.776 244.233 406.453C244.233 407.13 244.782 407.679 245.459 407.679Z" fill="#573240"/>
<path d="M250.199 414.245C250.876 414.245 251.425 413.696 251.425 413.019C251.425 412.342 250.876 411.793 250.199 411.793C249.522 411.793 248.973 412.342 248.973 413.019C248.973 413.696 249.522 414.245 250.199 414.245Z" fill="#573240"/>
<path d="M253.643 410.226C254.32 410.226 254.869 409.677 254.869 409C254.869 408.323 254.32 407.774 253.643 407.774C252.966 407.774 252.417 408.323 252.417 409C252.417 409.677 252.966 410.226 253.643 410.226Z" fill="#573240"/>
<path d="M257.088 404.198C257.765 404.198 258.314 403.649 258.314 402.972C258.314 402.295 257.765 401.746 257.088 401.746C256.41 401.746 255.862 402.295 255.862 402.972C255.862 403.649 256.41 404.198 257.088 404.198Z" fill="#573240"/>
<path d="M250.773 404.772C251.45 404.772 251.999 404.224 251.999 403.546C251.999 402.869 251.45 402.32 250.773 402.32C250.096 402.32 249.547 402.869 249.547 403.546C249.547 404.224 250.096 404.772 250.773 404.772Z" fill="#573240"/>
<path d="M263.77 358.538L259.506 377.091H243.895L240.27 361.318C241.198 361.97 242.406 362.392 243.952 362.392C245.762 362.392 247.364 361.448 248.31 360.008C248.897 362.369 251.033 364.113 253.573 364.113C255.615 364.113 258.92 362.155 258.317 358.459C258.317 358.459 261.666 359.933 263.77 358.538Z" fill="#573240"/>
<path d="M243.952 362.391C245.764 362.391 247.363 361.447 248.31 360.009C248.898 362.368 251.034 364.113 253.574 364.113C255.615 364.113 258.92 362.154 258.316 358.459C258.316 358.459 264.548 361.201 265.358 355.66C266.036 351.019 260.753 345.886 251.568 345.886C244.271 345.886 237.491 350.261 237.491 355.66C237.491 357.932 238.93 362.391 243.952 362.391Z" fill="#FF6E00"/>
<path d="M262.378 365.001C263.487 365.001 264.387 364.101 264.387 362.991C264.387 361.881 263.487 360.982 262.378 360.982C261.268 360.982 260.368 361.881 260.368 362.991C260.368 364.101 261.268 365.001 262.378 365.001Z" fill="#FF6E00"/>
<path d="M243.082 353.468C243.759 353.468 244.308 352.919 244.308 352.242C244.308 351.565 243.759 351.016 243.082 351.016C242.405 351.016 241.856 351.565 241.856 352.242C241.856 352.919 242.405 353.468 243.082 353.468Z" fill="#F1B104"/>
<path d="M246.453 357.146C247.13 357.146 247.679 356.597 247.679 355.92C247.679 355.243 247.13 354.694 246.453 354.694C245.776 354.694 245.227 355.243 245.227 355.92C245.227 356.597 245.776 357.146 246.453 357.146Z" fill="#F1B104"/>
<path d="M249.824 350.403C250.502 350.403 251.05 349.854 251.05 349.177C251.05 348.5 250.502 347.951 249.824 347.951C249.147 347.951 248.598 348.5 248.598 349.177C248.598 349.854 249.147 350.403 249.824 350.403Z" fill="#F1B104"/>
<path d="M252.889 359.904C253.566 359.904 254.115 359.355 254.115 358.678C254.115 358.001 253.566 357.452 252.889 357.452C252.212 357.452 251.663 358.001 251.663 358.678C251.663 359.355 252.212 359.904 252.889 359.904Z" fill="#F1B104"/>
<path d="M255.954 353.468C256.631 353.468 257.18 352.919 257.18 352.242C257.18 351.565 256.631 351.016 255.954 351.016C255.277 351.016 254.728 351.565 254.728 352.242C254.728 352.919 255.277 353.468 255.954 353.468Z" fill="#F1B104"/>
<path d="M259.142 348.762C259.819 348.762 260.368 348.213 260.368 347.536C260.368 346.859 259.819 346.31 259.142 346.31C258.465 346.31 257.916 346.859 257.916 347.536C257.916 348.213 258.465 348.762 259.142 348.762Z" fill="#F1B104"/>
<path d="M262.39 356.533C263.067 356.533 263.616 355.984 263.616 355.307C263.616 354.63 263.067 354.081 262.39 354.081C261.713 354.081 261.164 354.63 261.164 355.307C261.164 355.984 261.713 356.533 262.39 356.533Z" fill="#F1B104"/>
<path d="M300.559 414.213L296.66 431.666H281.049L277.41 415.384C278.31 416.039 279.515 416.469 281.106 416.469C282.919 416.469 284.517 415.567 285.464 414.192C286.053 416.446 288.189 418.115 290.729 418.115C292.769 418.115 294.545 417.04 295.471 415.452C295.471 415.452 298.561 415.903 300.559 414.213Z" fill="#573240"/>
<path d="M281.107 416.468C282.918 416.468 284.517 415.565 285.465 414.191C286.053 416.446 288.189 418.114 290.729 418.114C292.77 418.114 294.544 417.041 295.471 415.453C295.471 415.453 302.225 416.438 302.225 410.035C302.225 404.56 296.022 400.694 288.723 400.694C281.426 400.694 274.933 404.875 274.933 410.035C274.933 412.206 276.084 416.468 281.107 416.468Z" fill="#F6ACC1"/>
<path d="M280.106 412.36C280.798 412.36 281.359 411.799 281.359 411.107C281.359 410.415 280.798 409.854 280.106 409.854C279.414 409.854 278.853 410.415 278.853 411.107C278.853 411.799 279.414 412.36 280.106 412.36Z" fill="white"/>
<path d="M284.117 406.427C284.809 406.427 285.37 405.866 285.37 405.174C285.37 404.482 284.809 403.921 284.117 403.921C283.425 403.921 282.864 404.482 282.864 405.174C282.864 405.866 283.425 406.427 284.117 406.427Z" fill="white"/>
<path d="M287.063 410.253C287.755 410.253 288.316 409.692 288.316 409C288.316 408.308 287.755 407.747 287.063 407.747C286.371 407.747 285.81 408.308 285.81 409C285.81 409.692 286.371 410.253 287.063 410.253Z" fill="white"/>
<path d="M293.269 407.706C293.961 407.706 294.522 407.145 294.522 406.453C294.522 405.761 293.961 405.2 293.269 405.2C292.577 405.2 292.016 405.761 292.016 406.453C292.016 407.145 292.577 407.706 293.269 407.706Z" fill="white"/>
<path d="M288.316 401.947C289.008 401.947 289.569 401.386 289.569 400.694C289.569 400.002 289.008 399.441 288.316 399.441C287.624 399.441 287.063 400.002 287.063 400.694C287.063 401.386 287.624 401.947 288.316 401.947Z" fill="white"/>
<path d="M299.265 406.052C299.957 406.052 300.517 405.491 300.517 404.799C300.517 404.107 299.957 403.546 299.265 403.546C298.573 403.546 298.012 404.107 298.012 404.799C298.012 405.491 298.573 406.052 299.265 406.052Z" fill="white"/>
<path d="M295.774 413.914C296.466 413.914 297.027 413.353 297.027 412.661C297.027 411.969 296.466 411.408 295.774 411.408C295.082 411.408 294.521 411.969 294.521 412.661C294.521 413.353 295.082 413.914 295.774 413.914Z" fill="white"/>
<path d="M474.859 431.666H221.401V306.518H348.816C393.828 306.518 434.397 333.659 451.574 375.263L474.859 431.666Z" stroke="#573240" stroke-width="5" stroke-miterlimit="10" stroke-linecap="round"/>
<path d="M221.576 377.378H451.835" stroke="#573240" stroke-width="5" stroke-miterlimit="10" stroke-linecap="round"/>
<path d="M322.437 431.666H221.401V306.711C254.375 312.219 282.729 335.49 295.773 367.085L322.437 431.666Z" stroke="#573240" stroke-width="5" stroke-miterlimit="10" stroke-linecap="round"/>
<path d="M535.787 194.294C535.787 197.817 532.931 200.674 529.407 200.674C525.883 200.674 523.027 197.817 523.027 194.294" stroke="#573240" stroke-width="5" stroke-miterlimit="10"/>
<path d="M529.823 72.7954V174.717" stroke="#573240" stroke-width="5" stroke-miterlimit="10" stroke-linecap="round"/>
<path d="M580.267 194.231H479.378C479.898 192.029 481.023 190.06 482.57 188.513C484.74 186.346 487.737 185.002 491.047 185.002H502.813C504.282 185.002 505.675 184.351 506.616 183.225L511.263 177.674C512.834 175.8 515.15 174.717 517.596 174.717H542.049C544.492 174.717 546.811 175.799 548.379 177.674L553.029 183.228C553.97 184.354 555.362 185.002 556.829 185.002H568.598C574.268 185.002 579.021 188.941 580.267 194.231Z" fill="#F6ACC1"/>
<path d="M374.529 72.7954V174.717" stroke="#573240" stroke-width="5" stroke-miterlimit="10" stroke-linecap="round"/>
<path d="M424.974 194.231H324.085C324.604 192.029 325.73 190.06 327.277 188.513C329.447 186.346 332.444 185.002 335.753 185.002H347.519C348.989 185.002 350.381 184.351 351.323 183.225L355.97 177.674C357.54 175.8 359.857 174.717 362.302 174.717H386.756C389.198 174.717 391.518 175.799 393.085 177.674L397.735 183.228C398.677 184.354 400.069 185.002 401.536 185.002H413.305C418.974 185.002 423.728 188.941 424.974 194.231Z" fill="#A9D8D5"/>
<path d="M381.068 194.294C381.068 197.817 378.211 200.674 374.688 200.674C371.164 200.674 368.308 197.817 368.308 194.294" stroke="#573240" stroke-width="5" stroke-miterlimit="10"/>
</svg>
